<?xml version="1.0" encoding="utf-8"?>
<!-- Generator: Adobe Illustrator 17.1.0, SVG Export Plug-In . SVG Version: 6.00 Build 0)  -->
<!DOCTYPE svg PUBLIC "-//W3C//DTD SVG 1.0//EN" "http://www.w3.org/TR/2001/REC-SVG-20010904/DTD/svg10.dtd">
<svg version="1.0" id="Layer_1" xmlns="http://www.w3.org/2000/svg" xmlns:xlink="http://www.w3.org/1999/xlink" x="0px" y="0px"
	 viewBox="0 0 72 54.4" enable-background="new 0 0 72 54.4" xml:space="preserve">
<g>
	<path fill="#F69325" d="M12.6,40.7c4.7,8,13.4,13.5,23.3,13.5c10,0,18.7-5.4,23.3-13.5H12.6z"/>
	<path opacity="0.2" d="M71.9,40.7l-4.5-9h-4.9c-0.5,3.2-1.7,6.2-3.2,9H71.9z"/>
	<path opacity="0.2" d="M4.6,31.7l-4.5,9h12.6c-1.6-2.7-2.7-5.7-3.2-9H4.6z"/>
	<path fill="#FAA526" d="M36,0.3c-14.9,0-27,12-27,26.9c0,1.5,0.1,3,0.4,4.5c0.5,3.2,1.7,6.2,3.2,9h46.7c1.6-2.7,2.7-5.7,3.2-9
		c0.2-1.5,0.4-3,0.4-4.5C62.9,12.4,50.9,0.3,36,0.3z"/>
</g>
</svg>
